<mxfile modified="2022-05-04T04:24:05.219Z" host="app.diagrams.net" agent="5.0 (Windows NT 10.0; Win64; x64) AppleWebKit/537.36 (KHTML, like Gecko) Chrome/100.0.4896.127 Safari/537.36 Edg/100.0.1185.50" etag="ahTdvxmEJ6SQaHV_vuxM" compressed="false" version="17.5.0" type="google">
  <diagram id="0aIIHYs0VRBmFU4zPPv2" name="Diagnostics - Errors">
    <mxGraphModel grid="1" page="1" gridSize="10" guides="1" tooltips="1" connect="1" arrows="1" fold="1" pageScale="1" pageWidth="827" pageHeight="1169" math="0" shadow="0">
      <root>
        <mxCell id="C51CaPQ0B-Lk0K0SkZ-6-0" />
        <mxCell id="C51CaPQ0B-Lk0K0SkZ-6-1" parent="C51CaPQ0B-Lk0K0SkZ-6-0" />
        <mxCell id="kI-nWUAVh75FRqppQIqm-4" value="" style="endArrow=block;endFill=0;endSize=12;html=1;strokeColor=#000000;fontSize=10;entryX=1;entryY=0.5;entryDx=0;entryDy=0;exitX=0;exitY=0.5;exitDx=0;exitDy=0;" edge="1" parent="C51CaPQ0B-Lk0K0SkZ-6-1" source="Yy00xWdVSZUrBKmZrrDK-14" target="Yy00xWdVSZUrBKmZrrDK-16">
          <mxGeometry width="160" relative="1" as="geometry">
            <mxPoint x="260" y="370" as="sourcePoint" />
            <mxPoint x="260" y="400" as="targetPoint" />
          </mxGeometry>
        </mxCell>
        <mxCell id="kI-nWUAVh75FRqppQIqm-5" value="&lt;font style=&quot;font-size: 12px&quot;&gt;&lt;span style=&quot;font-size: 12px&quot;&gt;Diagram: Base System Logical Module -&amp;nbsp;&lt;/span&gt;&lt;span style=&quot;font-size: 12px&quot;&gt;Functionality -&amp;nbsp;&lt;/span&gt;System Errors&lt;/font&gt;" style="text;strokeColor=none;fillColor=none;html=1;fontSize=12;fontStyle=2;verticalAlign=middle;align=left;shadow=0;glass=0;comic=0;opacity=30;fontColor=#808080;" vertex="1" parent="C51CaPQ0B-Lk0K0SkZ-6-1">
          <mxGeometry x="120" y="380" width="520" height="20" as="geometry" />
        </mxCell>
        <UserObject label="" tooltip="ABOUT&#xa;&#xa;Although Diagnostic logs are a means to track down sequences of operations, Error Logs are a way to keep a record of Exceptions, in order to better find a pattern. They also happen to be useful as the basis of a visual demonstration that effort and iterative deployments are contributing to a decreasing number of unexpected errors (hopefully)." id="kI-nWUAVh75FRqppQIqm-6">
          <mxCell style="shape=image;html=1;verticalAlign=top;verticalLabelPosition=bottom;labelBackgroundColor=#ffffff;imageAspect=0;aspect=fixed;image=https://cdn1.iconfinder.com/data/icons/hawcons/32/699014-icon-28-information-128.png;shadow=0;dashed=0;fontFamily=Helvetica;fontSize=12;fontColor=#000000;align=center;strokeColor=#000000;fillColor=#505050;dashPattern=1 1;" vertex="1" parent="C51CaPQ0B-Lk0K0SkZ-6-1">
            <mxGeometry x="660" y="380" width="20" height="20" as="geometry" />
          </mxCell>
        </UserObject>
        <mxCell id="Yy00xWdVSZUrBKmZrrDK-6" style="edgeStyle=none;rounded=0;orthogonalLoop=1;jettySize=auto;html=1;entryX=0;entryY=0.5;entryDx=0;entryDy=0;endArrow=open;endFill=0;exitX=1.01;exitY=0.416;exitDx=0;exitDy=0;exitPerimeter=0;" edge="1" parent="C51CaPQ0B-Lk0K0SkZ-6-1" source="Yy00xWdVSZUrBKmZrrDK-0" target="Yy00xWdVSZUrBKmZrrDK-2">
          <mxGeometry relative="1" as="geometry" />
        </mxCell>
        <mxCell id="Yy00xWdVSZUrBKmZrrDK-0" value="&lt;p style=&quot;line-height: 100%&quot;&gt;&amp;lt;&amp;lt;actor&amp;gt;&amp;gt;&lt;br&gt;&lt;br&gt;&lt;b&gt;Maintenance &lt;br&gt;Specialist&lt;/b&gt;&lt;/p&gt;" style="text;html=1;align=center;verticalAlign=middle;dashed=0;strokeColor=#000000;strokeWidth=2;" vertex="1" parent="C51CaPQ0B-Lk0K0SkZ-6-1">
          <mxGeometry x="240" y="230" width="80" height="77" as="geometry" />
        </mxCell>
        <mxCell id="Yy00xWdVSZUrBKmZrrDK-1" value="" style="fontStyle=1;align=center;verticalAlign=top;childLayout=stackLayout;horizontal=1;horizontalStack=0;resizeParent=1;resizeParentMax=0;resizeLast=0;marginBottom=0;strokeColor=#82b366;strokeWidth=2;fillColor=none;" vertex="1" parent="C51CaPQ0B-Lk0K0SkZ-6-1">
          <mxGeometry x="380" y="280" width="120" height="83" as="geometry" />
        </mxCell>
        <mxCell id="Yy00xWdVSZUrBKmZrrDK-2" value="Retrieve Paged, &lt;br&gt;Sorted Filtered&lt;br&gt;SummaryItems of &lt;br&gt;Exceptions" style="html=1;align=left;spacingLeft=4;verticalAlign=middle;strokeColor=none;fillColor=none;fontStyle=1" vertex="1" parent="Yy00xWdVSZUrBKmZrrDK-1">
          <mxGeometry width="120" height="50" as="geometry" />
        </mxCell>
        <mxCell id="Yy00xWdVSZUrBKmZrrDK-3" value="" style="shape=ellipse;" vertex="1" parent="Yy00xWdVSZUrBKmZrrDK-2">
          <mxGeometry x="1" width="10" height="16" relative="1" as="geometry">
            <mxPoint x="-25" y="7" as="offset" />
          </mxGeometry>
        </mxCell>
        <mxCell id="Yy00xWdVSZUrBKmZrrDK-4" value="" style="line;strokeWidth=1;fillColor=none;align=left;verticalAlign=middle;spacingTop=-1;spacingLeft=3;spacingRight=3;rotatable=0;labelPosition=right;points=[];portConstraint=eastwest;" vertex="1" parent="Yy00xWdVSZUrBKmZrrDK-1">
          <mxGeometry y="50" width="120" height="8" as="geometry" />
        </mxCell>
        <mxCell id="Yy00xWdVSZUrBKmZrrDK-5" value="." style="html=1;align=center;spacingLeft=4;verticalAlign=top;strokeColor=none;fillColor=none;" vertex="1" parent="Yy00xWdVSZUrBKmZrrDK-1">
          <mxGeometry y="58" width="120" height="25" as="geometry" />
        </mxCell>
        <mxCell id="Yy00xWdVSZUrBKmZrrDK-8" style="edgeStyle=none;rounded=0;orthogonalLoop=1;jettySize=auto;html=1;entryX=0;entryY=0.75;entryDx=0;entryDy=0;endArrow=open;endFill=0;exitX=0.5;exitY=1;exitDx=0;exitDy=0;" edge="1" parent="C51CaPQ0B-Lk0K0SkZ-6-1" source="Yy00xWdVSZUrBKmZrrDK-16" target="Yy00xWdVSZUrBKmZrrDK-2">
          <mxGeometry relative="1" as="geometry">
            <mxPoint x="320" y="368.5" as="sourcePoint" />
            <Array as="points">
              <mxPoint x="160" y="318" />
            </Array>
          </mxGeometry>
        </mxCell>
        <mxCell id="Yy00xWdVSZUrBKmZrrDK-9" value="" style="fontStyle=1;align=center;verticalAlign=top;childLayout=stackLayout;horizontal=1;horizontalStack=0;resizeParent=1;resizeParentMax=0;resizeLast=0;marginBottom=0;strokeColor=#82b366;strokeWidth=2;fillColor=none;" vertex="1" parent="C51CaPQ0B-Lk0K0SkZ-6-1">
          <mxGeometry x="380" y="120" width="120" height="83" as="geometry" />
        </mxCell>
        <mxCell id="Yy00xWdVSZUrBKmZrrDK-10" value="Persist &lt;br&gt;Exception&lt;br&gt;Record" style="html=1;align=left;spacingLeft=4;verticalAlign=middle;strokeColor=none;fillColor=none;fontStyle=1" vertex="1" parent="Yy00xWdVSZUrBKmZrrDK-9">
          <mxGeometry width="120" height="50" as="geometry" />
        </mxCell>
        <mxCell id="Yy00xWdVSZUrBKmZrrDK-11" value="" style="shape=ellipse;" vertex="1" parent="Yy00xWdVSZUrBKmZrrDK-10">
          <mxGeometry x="1" width="10" height="16" relative="1" as="geometry">
            <mxPoint x="-25" y="7" as="offset" />
          </mxGeometry>
        </mxCell>
        <mxCell id="Yy00xWdVSZUrBKmZrrDK-12" value="" style="line;strokeWidth=1;fillColor=none;align=left;verticalAlign=middle;spacingTop=-1;spacingLeft=3;spacingRight=3;rotatable=0;labelPosition=right;points=[];portConstraint=eastwest;" vertex="1" parent="Yy00xWdVSZUrBKmZrrDK-9">
          <mxGeometry y="50" width="120" height="8" as="geometry" />
        </mxCell>
        <mxCell id="Yy00xWdVSZUrBKmZrrDK-13" value="." style="html=1;align=center;spacingLeft=4;verticalAlign=top;strokeColor=none;fillColor=none;" vertex="1" parent="Yy00xWdVSZUrBKmZrrDK-9">
          <mxGeometry y="58" width="120" height="25" as="geometry" />
        </mxCell>
        <mxCell id="Yy00xWdVSZUrBKmZrrDK-15" style="edgeStyle=none;rounded=0;orthogonalLoop=1;jettySize=auto;html=1;entryX=0;entryY=0.75;entryDx=0;entryDy=0;endArrow=open;endFill=0;" edge="1" parent="C51CaPQ0B-Lk0K0SkZ-6-1" source="Yy00xWdVSZUrBKmZrrDK-14" target="Yy00xWdVSZUrBKmZrrDK-10">
          <mxGeometry relative="1" as="geometry" />
        </mxCell>
        <mxCell id="Yy00xWdVSZUrBKmZrrDK-14" value="&lt;p style=&quot;line-height: 100%&quot;&gt;&amp;lt;&amp;lt;actor&amp;gt;&amp;gt;&lt;br&gt;&lt;br&gt;&lt;b&gt;System &lt;br&gt;Daemon&lt;/b&gt;&lt;/p&gt;" style="text;html=1;align=center;verticalAlign=middle;dashed=0;strokeColor=#000000;strokeWidth=2;" vertex="1" parent="C51CaPQ0B-Lk0K0SkZ-6-1">
          <mxGeometry x="240" y="120" width="80" height="77" as="geometry" />
        </mxCell>
        <mxCell id="Yy00xWdVSZUrBKmZrrDK-16" value="&lt;p style=&quot;line-height: 100%&quot;&gt;&amp;lt;&amp;lt;actor&amp;gt;&amp;gt;&lt;br&gt;&lt;br&gt;&lt;b&gt;Authenticated&lt;br&gt;User&lt;/b&gt;&lt;/p&gt;" style="text;html=1;align=center;verticalAlign=middle;dashed=0;strokeColor=#000000;strokeWidth=2;" vertex="1" parent="C51CaPQ0B-Lk0K0SkZ-6-1">
          <mxGeometry x="120" y="180" width="80" height="77" as="geometry" />
        </mxCell>
        <mxCell id="Yy00xWdVSZUrBKmZrrDK-17" value="" style="endArrow=block;endFill=0;endSize=12;html=1;strokeColor=#000000;fontSize=10;entryX=1;entryY=0.5;entryDx=0;entryDy=0;exitX=0;exitY=0.5;exitDx=0;exitDy=0;" edge="1" parent="C51CaPQ0B-Lk0K0SkZ-6-1" source="Yy00xWdVSZUrBKmZrrDK-0" target="Yy00xWdVSZUrBKmZrrDK-16">
          <mxGeometry width="160" relative="1" as="geometry">
            <mxPoint x="250" y="168.5" as="sourcePoint" />
            <mxPoint x="210" y="228.5" as="targetPoint" />
          </mxGeometry>
        </mxCell>
      </root>
    </mxGraphModel>
  </diagram>
</mxfile>
